<?xml version="1.0" standalone="no"?><!DOCTYPE svg PUBLIC "-//W3C//DTD SVG 1.1//EN" "http://www.w3.org/Graphics/SVG/1.1/DTD/svg11.dtd"><svg t="1645934055290" class="icon" viewBox="0 0 1024 1024" version="1.1" xmlns="http://www.w3.org/2000/svg" p-id="5976" xmlns:xlink="http://www.w3.org/1999/xlink" width="32" height="32"><defs><style type="text/css"></style></defs><path d="M511.24 1024l-24.976-20.32c-3.856-3.144-95.656-78.216-188.744-185.88C169.104 669.28 104 535.968 104 421.568V410.24C104 184.032 286.688 0 511.24 0c224.544 0 407.232 184.032 407.232 410.24v11.328c0 114.4-65.104 247.712-193.52 396.232-93.088 107.664-184.88 182.728-188.744 185.88L511.24 1024z m0-943.952c-180.744 0-327.776 148.12-327.776 330.184v11.336c0 193.32 247.256 427.336 327.776 498.408 80.48-71.04 327.768-305.08 327.768-498.4v-11.344c0-182.064-147.04-330.184-327.768-330.184z m84.648 353.584l-59.8 58.904c-15.856-11.68-33.816-27.344-56.08-49.768-22.536-22.688-39.704-41.952-52.664-59.152l58.056-58.96-113.04-114.536-45.344 45.28c-20.264 20.424-22.4 48.76-13.152 77.496 16 49.744 32.84 88.816 109.96 166.472 77.112 77.664 117.968 90.248 165.968 110.176 11.056 4.592 21.496 6.8 31.28 6.8 17.384 0 32.688-6.992 45.656-20.048l45.144-45.664-115.984-117z" p-id="5977" fill="#10BA97"></path></svg>