<?xml version="1.0" standalone="no"?><!DOCTYPE svg PUBLIC "-//W3C//DTD SVG 1.1//EN" "http://www.w3.org/Graphics/SVG/1.1/DTD/svg11.dtd"><svg t="1645934142435" class="icon" viewBox="0 0 1024 1024" version="1.1" xmlns="http://www.w3.org/2000/svg" p-id="6883" xmlns:xlink="http://www.w3.org/1999/xlink" width="32" height="32"><defs><style type="text/css"></style></defs><path d="M777.74848 528.46592h57.20064s-18.96448-97.92512-19.90656-96.99328l-37.29408 96.99328z" fill="#10BA97" p-id="6884"></path><path d="M866.28352 154.60352H157.71648c-47.54432 0-86.44608 38.90176-86.44608 86.44608v514.85696c0 47.54432 38.90176 86.44608 86.44608 86.44608h708.56704c47.54432 0 86.44608-38.90176 86.44608-86.44608V241.0496c0-47.54432-38.90176-86.44608-86.44608-86.44608zM95.06816 360.59136h136.78592l27.35104 136.78592C204.50304 387.9424 95.06816 360.59136 95.06816 360.59136z m129.3312 253.66528l-52.224-206.41792c64.65536 39.79264 89.52832 106.93632 89.52832 106.93632l4.97664 24.87296 62.17728-179.06688h69.632l-101.96992 253.66528h-72.12032z m228.79232-2.48832H386.048l39.79264-251.17696h67.14368l-39.79264 251.17696z m217.53856-31.20128c-15.4112 28.07808-47.06304 42.14784-94.464 42.14784-23.49056 0-50.85184-3.46112-82.0224-10.38336l12.41088-55.84896c76.93312 17.1008 107.55072 6.2976 113.52064-2.7648 4.02432-6.11328 0.57344-16.41472-1.23904-19.27168-19.03616-18.8928-34.44736-26.99264-48.05632-34.1504-18.0224-9.48224-40.45824-21.27872-44.14464-54.48704-4.17792-37.60128 11.1104-58.7776 24.6784-69.92896 43.86816-36.06528 125.71648-12.77952 141.6704-7.74144l-17.16224 54.56896c-27.78112-8.67328-73.89184-14.40768-88.20736-2.6112-1.42336 1.1776-5.75488 4.74112-4.12672 19.41504a7.9872 7.9872 0 0 0 0.39936 2.21184c1.28 2.12992 8.52992 5.3248 13.5168 7.95648 14.73536 7.74144 37.00736 19.456 62.43328 44.88192 15.69792 15.69792 28.19072 54.3232 10.79296 86.00576z m180.3776 31.20128l-7.45472-34.816H759.0912l-13.68064 36.06528H680.7552l108.1856-252.42624h72.13056l49.73568 251.17696h-59.6992z" fill="#10BA97" p-id="6885"></path></svg>