<?xml version="1.0" standalone="no"?><!DOCTYPE svg PUBLIC "-//W3C//DTD SVG 1.1//EN" "http://www.w3.org/Graphics/SVG/1.1/DTD/svg11.dtd"><svg t="1645440531203" class="icon" viewBox="0 0 1024 1024" version="1.1" xmlns="http://www.w3.org/2000/svg" p-id="8276" width="24" height="24" xmlns:xlink="http://www.w3.org/1999/xlink"><defs><style type="text/css"></style></defs><path d="M512 19.22C239.846 19.22 19.22 239.845 19.22 512S239.845 1004.78 512 1004.78 1004.78 784.155 1004.78 512 784.154 19.22 512 19.22z m205.79 441.979v70.634H556.146v98.253H717.79v71.088H556.146v141.269h-88.292V701.175H301.229v-71.088h166.624v-98.253H301.229V461.2H441.59L269.987 181.556h100.97l119.988 209.01c6.637 13.887 14.186 31.546 22.64 52.975h1.811c6.035-17.206 13.88-35.615 23.545-55.241l120.44-206.744h94.633l-173.87 279.643H717.79z" fill="#10BA97" p-id="8277"></path></svg>