<?xml version="1.0" standalone="no"?><!DOCTYPE svg PUBLIC "-//W3C//DTD SVG 1.1//EN" "http://www.w3.org/Graphics/SVG/1.1/DTD/svg11.dtd"><svg t="1645677540347" class="icon" viewBox="0 0 1058 1024" version="1.1" xmlns="http://www.w3.org/2000/svg" p-id="5572" width="66.125" height="64" xmlns:xlink="http://www.w3.org/1999/xlink"><defs><style type="text/css"></style></defs><path d="M1044.898 536.381L1024 515.483 606.041 369.197l13.932-34.83 34.83 13.932h27.864c13.932 0 27.864 0 41.796-6.966 27.864-13.932 41.796-34.83 55.728-55.728 6.966-27.864 6.966-55.728-6.966-76.626s-34.83-41.796-55.728-55.728L327.402 13.931c-55.728-27.864-118.422 0-132.354 55.728-13.932 27.864-13.932 55.728 0 76.626 13.932 27.864 34.83 48.762 62.694 55.728l34.83 13.932-104.49 264.707-27.864-6.966c-27.864-13.932-55.728-6.966-83.592 0-20.898 13.932-41.796 34.83-48.762 62.694-13.932 27.864-13.932 55.728 0 76.626 13.932 27.864 34.83 41.796 55.728 55.728l390.095 139.32c13.932 6.966 20.898 6.966 34.83 6.966 41.796 0 83.592-27.864 97.524-69.66 20.898-27.864 13.932-55.728 6.966-76.626-13.932-27.864-34.83-48.762-62.694-55.728l-27.864-13.932 13.932-34.83 424.925 153.252h13.932c13.932 0 27.864-6.966 34.83-20.898l48.762-132.354c-6.966-6.966-6.966-13.932-13.932-27.864zM257.741 118.422c-6.966-6.966-6.966-20.898 0-27.864 6.966-13.932 27.864-27.864 41.796-20.898l390.095 139.32c6.966 0 13.932 6.966 20.898 20.898 6.966 6.966 6.966 20.898 0 27.864s-6.966 13.932-13.932 20.898h-27.864L278.639 139.32l-20.898-20.898z m292.572 578.177c6.966 6.966 6.966 20.898 0 27.864-6.966 20.898-27.864 27.864-41.796 20.898l-390.095-139.32c-6.966 0-13.932-6.966-20.898-20.898-6.966-6.966-6.966-20.898-6.966-27.864s6.966-13.932 20.898-20.898c6.966-6.966 20.898-6.966 27.864 0l390.095 139.32 20.898 20.898zM355.265 236.844l195.048 69.66-20.898 69.66v6.966l-48.762 125.388v6.966l-27.864 55.728-195.048-69.66 97.524-264.707z m592.109 404.027l-390.095-139.32 20.898-62.694 390.095 139.32-20.898 62.694zM661.769 954.34h-48.762v-41.796c0-13.932-13.932-27.864-27.864-27.864H83.592c-13.932 0-27.864 13.932-27.864 27.864v41.796H34.83C13.932 954.34 0 968.272 0 989.17S13.932 1024 34.83 1024h626.939c20.898 0 34.83-13.932 34.83-34.83s-13.932-34.83-34.83-34.83z" p-id="5573" fill="#10BA97"></path></svg>