<?xml version="1.0" standalone="no"?><!DOCTYPE svg PUBLIC "-//W3C//DTD SVG 1.1//EN" "http://www.w3.org/Graphics/SVG/1.1/DTD/svg11.dtd"><svg t="1645683797668" class="icon" viewBox="0 0 1024 1024" version="1.1" xmlns="http://www.w3.org/2000/svg" p-id="8679" width="128" height="128" xmlns:xlink="http://www.w3.org/1999/xlink"><defs><style type="text/css"></style></defs><path d="M904.081408 877.43488 119.92064 877.43488c-45.585408 0-82.54464-36.960256-82.54464-82.543616L37.376 237.723648c0-45.584384 36.959232-82.542592 82.54464-82.542592l175.403008 0 51.590144-82.543616c0-11.365376 29.867008-20.635648 41.271296-20.635648l247.630848 0c11.40736 0 41.27232 9.270272 41.27232 20.635648l51.58912 82.543616 175.40608 0c45.584384 0 82.541568 36.959232 82.541568 82.542592L986.625024 794.89024C986.624 840.474624 949.665792 877.43488 904.081408 877.43488zM512 237.723648c-148.159488 0-268.266496 120.107008-268.266496 268.265472 0 148.159488 120.107008 268.266496 268.266496 268.266496S780.265472 654.147584 780.265472 505.98912l0 0C780.265472 357.830656 660.158464 237.723648 512 237.723648L512 237.723648zM512 691.710976c-102.575104 0-185.721856-83.146752-185.721856-185.721856S409.424896 320.26624 512 320.26624s185.721856 83.146752 185.721856 185.721856S614.575104 691.710976 512 691.710976L512 691.710976z" p-id="8680" fill="#cdcdcd"></path></svg>