<?xml version="1.0" standalone="no"?><!DOCTYPE svg PUBLIC "-//W3C//DTD SVG 1.1//EN" "http://www.w3.org/Graphics/SVG/1.1/DTD/svg11.dtd"><svg t="1645952363099" class="icon" viewBox="0 0 1251 1024" version="1.1" xmlns="http://www.w3.org/2000/svg" p-id="9201" width="39.09375" height="32" xmlns:xlink="http://www.w3.org/1999/xlink"><defs><style type="text/css"></style></defs><path d="M114.062222 347.591111h0.284445-0.284445M583.395556 0a39.253333 39.253333 0 0 0-32.426667 17.635556L455.111111 150.471111a248.32 248.32 0 0 1-157.297778 101.546667l-113.777777 20.195555a339.057778 339.057778 0 0 1-44.942223 4.835556c-12.8 0-24.746667 1.706667-44.657777 3.413333C12.515556 294.968889 0 512 0 512s12.515556 217.031111 94.151111 231.537778c19.911111 1.706667 31.857778 2.844444 44.657778 3.413333a339.057778 339.057778 0 0 1 44.942222 4.835556l113.777778 20.195555A248.32 248.32 0 0 1 455.111111 873.528889l95.857778 132.835555a39.537778 39.537778 0 0 0 32.426667 17.635556A44.657778 44.657778 0 0 0 625.777778 976.782222V47.217778A44.657778 44.657778 0 0 0 583.395556 0z m232.106666 778.808889c92.728889-85.333333 137.955556-178.915556 134.257778-275.911111-5.404444-152.177778-130.844444-256-136.248889-259.413334a35.868444 35.868444 0 1 0-45.511111 55.466667s105.528889 85.333333 110.08 206.506667C881.777778 580.835556 843.946667 654.222222 768 726.755556a35.555556 35.555556 0 0 0-1.991111 50.346666 36.124444 36.124444 0 0 0 50.346667 1.706667z m224.142222 153.031111c153.315556-162.986667 223.857778-327.395556 210.204445-488.96A533.333333 533.333333 0 0 0 1055.288889 88.177778a35.555556 35.555556 0 1 0-42.666667 56.888889s150.471111 116.053333 166.4 304.355555c11.946667 140.231111-52.337778 286.151111-191.146666 434.062222a35.555556 35.555556 0 0 0 25.884444 59.733334 35.84 35.84 0 0 0 25.884444-11.377778zM203.662222 547.555556H137.386667A39.253333 39.253333 0 0 1 95.288889 512a39.253333 39.253333 0 0 1 42.097778-35.555556h66.275555A39.253333 39.253333 0 0 1 245.76 512a39.253333 39.253333 0 0 1-42.097778 35.555556z" p-id="9202" fill="#ffffff"></path></svg>