<?xml version="1.0" standalone="no"?><!DOCTYPE svg PUBLIC "-//W3C//DTD SVG 1.1//EN" "http://www.w3.org/Graphics/SVG/1.1/DTD/svg11.dtd"><svg t="1645950515942" class="icon" viewBox="0 0 1024 1024" version="1.1" xmlns="http://www.w3.org/2000/svg" p-id="3343" xmlns:xlink="http://www.w3.org/1999/xlink" width="32" height="32"><defs><style type="text/css"></style></defs><path d="M473.088 159.744c15.36 0 31.744 1.024 47.104 3.072l-153.6 294.912c-23.552 45.056-14.336 99.328 22.528 134.144l246.784 232.448c-50.176 26.624-106.496 40.96-163.84 40.96-71.68 0-140.288-21.504-199.68-62.464C194.56 747.52 143.36 667.648 125.952 574.464s4.096-186.368 57.344-263.168c65.536-95.232 174.08-151.552 289.792-151.552m0-112.64c-147.456 0-291.84 69.632-381.952 199.68C-55.296 457.728-3.072 747.52 207.872 893.952c80.896 56.32 173.056 82.944 264.192 82.944 124.928 0 247.808-50.176 336.896-144.384L466.944 508.928 680.96 96.256c-65.536-32.768-137.216-49.152-207.872-49.152z" p-id="3344" fill="#ffffff"></path><path d="M885.76 820.224c16.384-17.408 31.744-34.816 46.08-55.296 146.432-210.944 94.208-500.736-116.736-647.168-18.432-12.288-37.888-23.552-57.344-32.768L542.72 496.64l343.04 323.584z" p-id="3345" fill="#ffffff"></path></svg>