<?xml version="1.0" standalone="no"?><!DOCTYPE svg PUBLIC "-//W3C//DTD SVG 1.1//EN" "http://www.w3.org/Graphics/SVG/1.1/DTD/svg11.dtd"><svg t="1645950884656" class="icon" viewBox="0 0 1025 1024" version="1.1" xmlns="http://www.w3.org/2000/svg" p-id="5170" xmlns:xlink="http://www.w3.org/1999/xlink" width="32.03125" height="32"><defs><style type="text/css"></style></defs><path d="M274.0224 67.584c11.3664-5.7344 18.2272-15.9744 19.3536-28.4672 1.1264-12.4928-5.7344-23.8592-15.9744-30.72-5.7344-3.3792-11.3664-4.5056-18.2272-4.5056-5.7344 0-11.3664 1.1264-17.1008 4.5056-97.792 51.2-179.712 127.3856-236.544 221.7984-9.1136 15.872-3.3792 36.352 11.3664 45.4656 5.7344 3.3792 11.3664 4.5056 17.1008 4.5056 11.3664 0 22.7328-5.7344 28.4672-15.9744 52.3264-83.968 125.1328-152.1664 211.5584-196.608z m574.3616 843.9808a32.93184 32.93184 0 0 0-29.5936-18.2272c-5.7344 0-10.24 1.1264-14.7456 3.3792-15.872 7.9872-23.8592 27.3408-15.872 44.3392l30.72 62.5664a32.93184 32.93184 0 0 0 29.5936 18.2272c5.7344 0 10.24-1.1264 14.7456-3.3792 15.9744-7.9872 23.8592-27.3408 15.9744-44.3392l-30.8224-62.5664zM216.064 896.8192c-4.5056-2.2528-10.24-3.3792-14.7456-3.3792-12.4928 0-23.8592 6.8608-29.5936 18.2272l-30.72 62.5664c-6.8608 17.1008 0 36.352 15.872 44.3392 4.5056 2.2528 10.24 3.3792 14.7456 3.3792 12.4928 0 23.8592-6.8608 29.5936-17.1008l30.72-62.5664c6.8608-17.1008 0-37.5808-15.872-45.4656z m292.2496-296.8576h253.6448c12.4928 0 22.7328-6.8608 29.5936-17.1008 5.7344-10.24 5.7344-23.8592 0-34.0992s-17.1008-17.1008-29.5936-17.1008H542.4128V312.1152c0-12.4928-6.8608-22.7328-17.1008-29.5936-5.7344-3.3792-11.3664-4.5056-17.1008-4.5056-5.7344 0-11.3664 1.1264-17.1008 4.5056-10.24 5.7344-17.1008 17.1008-17.1008 29.5936v253.6448c0 9.1136 3.3792 18.2272 10.24 23.8592 7.0656 6.8608 14.9504 10.3424 24.064 10.3424z m511.8976-370.7904l-3.3792-6.8608C959.8976 131.2768 879.104 56.2176 783.5648 7.3728c-5.632-3.3792-11.3664-4.5056-17.1008-4.5056-5.7344 0-12.4928 2.2528-18.2272 4.5056-10.24 6.8608-17.1008 18.2272-15.9744 30.72 1.1264 12.4928 7.9872 23.8592 20.48 28.4672a546.88768 546.88768 0 0 1 210.432 196.8128c5.7344 10.24 17.1008 15.9744 28.4672 15.9744 5.7344 0 12.4928-1.1264 17.1008-4.5056 7.9872-4.5056 13.6192-12.4928 14.7456-20.48 3.4816-8.192 1.2288-17.3056-3.2768-25.1904z m0 0" p-id="5171" fill="#ffffff"></path><path d="M508.3136 63.0784c-247.9104 0-449.2288 201.3184-449.2288 449.2288S260.4032 961.536 508.3136 961.536s449.2288-201.3184 449.2288-449.2288S756.3264 63.0784 508.3136 63.0784z m0 67.072c210.432 0 382.1568 171.7248 382.1568 382.1568S718.7456 894.464 508.3136 894.464 126.1568 723.8656 126.1568 512.3072s171.7248-382.1568 382.1568-382.1568z m0 0" p-id="5172" fill="#ffffff"></path></svg>